<?xml version="1.0" encoding="utf-8"?>
<!-- Generator: Adobe Illustrator 16.0.0, SVG Export Plug-In . SVG Version: 6.00 Build 0)  -->
<!DOCTYPE svg PUBLIC "-//W3C//DTD SVG 1.1//EN" "http://www.w3.org/Graphics/SVG/1.1/DTD/svg11.dtd">
<svg version="1.1" id="Vrstva_1" xmlns="http://www.w3.org/2000/svg" xmlns:xlink="http://www.w3.org/1999/xlink" x="0px" y="0px"
	 width="1080px" height="1920px" viewBox="0 0 1080 1920" enable-background="new 0 0 1080 1920" xml:space="preserve">
<g id="Vrstva_2">
	<g id="Vrstva_1-2">
		<path fill="#FCFCFC" d="M659.201,959.672l396.075-395.783c32.907-32.907,32.907-86.26,0-119.166
			c-32.906-32.906-86.259-32.906-119.165,0l-396.44,396.075L143.888,444.723c-32.906-32.906-86.259-32.906-119.165,0
			s-32.906,86.259,0,119.166l396.075,395.783L24.723,1356.111c-32.906,32.826-32.972,86.113-0.146,119.02
			c0.048,0.049,0.097,0.098,0.146,0.146l0,0c32.826,32.906,86.113,32.972,119.02,0.146c0.049-0.049,0.098-0.097,0.146-0.146
			l395.783-396.075l396.148,396.075c32.826,32.906,86.113,32.972,119.02,0.146c0.049-0.049,0.098-0.097,0.146-0.146l0,0
			c32.906-32.826,32.972-86.113,0.146-119.02c-0.049-0.049-0.098-0.098-0.146-0.146L659.201,959.672z"/>
	</g>
</g>
</svg>
